<svg width="22" height="20" viewBox="0 0 22 20" fill="none" xmlns="http://www.w3.org/2000/svg">
<path d="M19.25 3.33325H2.75M19.25 16.6666H2.75" stroke="#61AB60" stroke-width="1.5" stroke-linecap="round" stroke-linejoin="round"/>
<path d="M6.54022 8.05093C8.29119 8.8925 9.16667 9.31333 9.16667 10.0001C9.16667 10.6868 8.29119 11.1077 6.54022 11.9493L5.34785 12.5223C4.00313 13.1687 3.33077 13.4918 3.00749 13.2569C2.92058 13.1938 2.84888 13.1105 2.79799 13.0137C2.60872 12.6535 2.99003 11.9924 3.75267 10.6703C3.92183 10.3771 4.0064 10.2304 4.02154 10.0701C4.02593 10.0235 4.02593 9.97667 4.02154 9.93008C4.00641 9.76975 3.92183 9.62308 3.75267 9.32983C2.99003 8.00771 2.60872 7.34664 2.79799 6.98652C2.84888 6.8897 2.92058 6.80645 3.00749 6.74328C3.33077 6.50833 4.00313 6.83149 5.34785 7.47783L6.54022 8.05093Z" stroke="#61AB60" stroke-width="1.5"/>
<path d="M19.2498 10H17.4165" stroke="#61AB60" stroke-width="1.5" stroke-linecap="round" stroke-linejoin="round"/>
<path d="M13.7498 10H11.9165" stroke="#61AB60" stroke-width="1.5" stroke-linecap="round" stroke-linejoin="round"/>
</svg>
