<svg width="22" height="20" viewBox="0 0 22 20" fill="none" xmlns="http://www.w3.org/2000/svg">
<path d="M15.2283 13.4037C12.8146 14.6396 11.4375 17.2007 11 17.9166V6.66657C11.38 6.04487 12.4685 4.26362 14.3291 3.05297C15.1129 2.54296 15.5048 2.28795 16.0024 2.52047C16.5 2.75299 16.5 3.26626 16.5 4.29278V11.6594C16.5 12.2139 16.5 12.4911 16.3748 12.686C16.2495 12.8808 15.9091 13.0551 15.2283 13.4037Z" stroke="#61AB60" stroke-width="1.5" stroke-linecap="round" stroke-linejoin="round"/>
<path d="M11.0002 6.50463C10.3705 5.90336 8.5451 4.47533 5.48234 3.97465C3.93074 3.721 3.15494 3.59418 2.49421 4.08028C1.8335 4.56638 1.8335 5.35573 1.8335 6.93444V12.6081C1.8335 14.0516 1.8335 14.7733 2.25755 15.2239C2.6816 15.6746 3.61518 15.8272 5.48234 16.1324C7.1468 16.4045 8.44582 16.8381 9.3861 17.2737C10.3112 17.7023 10.7737 17.9167 11.0002 17.9167C11.2266 17.9167 11.6891 17.7023 12.6142 17.2737C13.5545 16.8381 14.8536 16.4045 16.5179 16.1324C18.3852 15.8272 19.3187 15.6746 19.7428 15.2239C20.1668 14.7733 20.1668 14.0516 20.1668 12.6081V6.93444C20.1668 5.35573 20.1668 4.56638 19.5061 4.08028C18.8454 3.59418 17.4168 3.97465 16.5002 4.58333" stroke="#61AB60" stroke-width="1.5" stroke-linecap="round" stroke-linejoin="round"/>
</svg>
