<svg width="22" height="20" viewBox="0 0 22 20" fill="none" xmlns="http://www.w3.org/2000/svg">
<path d="M6.41683 9.16675H5.50016C2.46661 9.16675 1.8335 9.74233 1.8335 12.5001V15.0001C1.8335 17.7578 2.46661 18.3334 5.50016 18.3334H16.5002C19.5337 18.3334 20.1668 17.7578 20.1668 15.0001V12.5001C20.1668 10.6575 19.8842 9.78908 18.7918 9.41567" stroke="#61AB60" stroke-width="1.5" stroke-linecap="round" stroke-linejoin="round"/>
<path d="M11 15H16.5" stroke="#61AB60" stroke-width="1.5" stroke-linecap="round" stroke-linejoin="round"/>
<path d="M15.807 2.61084C16.2169 2.20656 16.4218 2.00443 16.6395 1.88653C17.165 1.60203 17.8121 1.59319 18.3462 1.86319C18.5676 1.97509 18.7789 2.17154 19.2013 2.56442C19.6238 2.95731 19.835 3.15376 19.9553 3.35966C20.2456 3.85647 20.2361 4.45817 19.9302 4.94684C19.8034 5.14936 19.5861 5.33994 19.1514 5.72111L13.9794 10.2563C12.6091 11.4578 11.7604 11.707 9.86244 11.6618C9.51787 11.6536 9.34563 11.6495 9.24553 11.546C9.14533 11.4426 9.15901 11.2828 9.18631 10.9632C9.31244 9.49017 9.59789 8.73542 10.7007 7.64763L15.807 2.61084Z" stroke="#61AB60" stroke-width="1.5" stroke-linejoin="round"/>
</svg>
