<svg width="22" height="20" viewBox="0 0 22 20" fill="none" xmlns="http://www.w3.org/2000/svg">
<path d="M19.0428 15C19.7297 15 20.276 14.6071 20.7665 14.0576C21.7707 12.9328 20.122 12.034 19.4932 11.5938C18.854 11.1463 18.1403 10.8928 17.4167 10.8333M16.5 9.16667C17.7656 9.16667 18.7917 8.23392 18.7917 7.08333C18.7917 5.93274 17.7656 5 16.5 5" stroke="#61AB60" stroke-width="1.5" stroke-linecap="round"/>
<path d="M2.95697 15C2.2701 15 1.72379 14.6071 1.23325 14.0576C0.229087 12.9328 1.87779 12.034 2.50659 11.5938C3.14581 11.1463 3.85954 10.8928 4.58317 10.8333M5.04151 9.16667C3.77586 9.16667 2.74984 8.23392 2.74984 7.08333C2.74984 5.93274 3.77586 5 5.04151 5" stroke="#61AB60" stroke-width="1.5" stroke-linecap="round"/>
<path d="M7.40999 12.5927C6.47336 13.1192 4.01757 14.1943 5.51331 15.5396C6.24397 16.1967 7.05773 16.6667 8.08083 16.6667H13.9189C14.942 16.6667 15.7557 16.1967 16.4864 15.5396C17.9821 14.1943 15.5264 13.1192 14.5897 12.5927C12.3933 11.3581 9.60634 11.3581 7.40999 12.5927Z" stroke="#61AB60" stroke-width="1.5" stroke-linecap="round" stroke-linejoin="round"/>
<path d="M14.2082 6.24992C14.2082 7.86075 12.7718 9.16659 10.9999 9.16659C9.22794 9.16659 7.7915 7.86075 7.7915 6.24992C7.7915 4.63909 9.22794 3.33325 10.9999 3.33325C12.7718 3.33325 14.2082 4.63909 14.2082 6.24992Z" stroke="#61AB60" stroke-width="1.5"/>
</svg>
